<svg xmlns="http://www.w3.org/2000/svg" width="316.758" height="291.303" viewBox="0 0 316.758 291.303"><title>signIn</title><rect x="159.689" y="61.702" width="157.069" height="33.647" style="fill:#dd1e33"/><rect x="221.433" width="33.582" height="157.071" style="fill:#dd1e33"/><path d="M99.975,91.489a99.907,99.907,0,1,0,99.839,99.929A99.983,99.983,0,0,0,99.975,91.489m7.041,152.828v15.73H94.288V244.5c-11.148-.451-23.065-2.822-32.633-7.989L67.523,220.8a77.509,77.509,0,0,0,31.459,6.748c10.381,0,17.2-3.769,17.2-13.607,0-8.192-6.364-11.194-15.98-13.993-18.73-5.167-35.655-9.253-35.655-30.421,0-16.814,10.651-28.729,29.744-30.918v-15.8h12.729v15.661c8.259,0.633,17.873,2.664,25.5,6.907L126.74,160.41c-11.284-4.557-18.326-5.01-25.411-5.01-9.073,0-14.986,4.559-14.986,13.182,0,7.989,9.389,10.515,19.409,13,13.133,3.293,32.452,8.033,32.452,32.362,0,17.376-12.188,28.343-31.188,30.375" style="fill:#dd1e33"/></svg>